#!OML:ASF I:\Actors\actors\Patient Classification 1\Patient 1\Session 1\Subject1.ASF
:FULLY-SPECIFIED
:DEGREES
225
root 0.456776 17.5081 8.99713 9.08094 2.52396 -10.0902
lowerback 2.10889 1.48455 5.73611
upperback -7.82103 2.55954 1.79628
thorax -9.31125 0.911441 -1.55101
lowerneck -15.6526 -4.22155 -2.86703
upperneck 24.0587 -7.39251 8.12968
head 10.7625 -2.68517 2.36469
rclavicle 1.23246e-014 7.55382e-015
rhumerus 2.04504 55.689 -72.8374
rradius 89.49
rwrist 32.1373
rhand -14.6446 -44.4673
rfingers 7.12502
rthumb 11.5075 -74.1314
lclavicle 1.23246e-014 7.55382e-015
lhumerus -2.78428 -29.3473 85.5072
lradius 72.1207
lwrist -2.9637
lhand -29.359 -3.74274
lfingers 7.12502
lthumb -2.69845 26.2199
rfemur -4.68864 24.9578 27.2882
rtibia 1.8037
rfoot -11.8693 -27.7971
rtoes 6.11938
lfemur 1.20448 -43.3924 -6.8475
ltibia -4.03135
lfoot -14.5247 48.5597
ltoes 2.24547
226
root 0.461128 17.5071 9.00876 8.93553 2.95889 -10.312
lowerback 2.05887 1.36913 5.8802
upperback -7.77989 2.41508 1.88388
thorax -9.24614 0.836575 -1.52247
lowerneck -15.6839 -4.17996 -2.64507
upperneck 24.1695 -7.30727 7.78158
head 10.7792 -2.6632 2.21476
rclavicle 1.06847e-014 -2.78299e-015
rhumerus 1.66127 55.4262 -72.952
rradius 91.396
rwrist 32.5141
rhand -16.0122 -45.4835
rfingers 7.12502
rthumb 10.1884 -75.2168
lclavicle 1.06847e-014 -2.78299e-015
lhumerus -2.90593 -29.8799 85.4993
lradius 71.8734
lwrist -2.51683
lhand -29.578 -3.44672
lfingers 7.12502
lthumb -2.90991 26.5132
rfemur -4.47651 24.6467 27.6421
rtibia 1.81425
rfoot -11.9638 -27.8297
rtoes 6.03588
lfemur 1.26953 -43.3709 -6.62996
ltibia -4.07812
lfoot -13.9932 48.2297
ltoes 1.48532
227
root 0.469013 17.5066 9.01487 8.86061 2.99934 -10.346
lowerback 2.06516 1.38919 5.89176
upperback -7.78977 2.44063 1.84005
thorax -9.25677 0.845886 -1.57807
lowerneck -15.8147 -4.17011 -2.44528
upperneck 24.5137 -7.30609 7.52098
head 10.913 -2.66212 2.08893
rclavicle 3.52843e-015 -2.38542e-015
rhumerus 1.98793 54.9571 -72.74
rradius 92.7512
rwrist 32.7009
rhand -17.3919 -46.3523
rfingers 7.12502
rthumb 8.85719 -76.1464
lclavicle 3.52843e-015 -2.38542e-015
lhumerus -3.14204 -30.5276 85.54
lradius 71.7767
lwrist -1.53961
lhand -29.6402 -2.83449
lfingers 7.12502
lthumb -2.97002 27.1246
rfemur -4.45069 24.4118 27.6907
rtibia 1.97944
rfoot -12.0018 -27.599
rtoes 5.73888
lfemur 1.42999 -43.3827 -6.74211
ltibia -4.09159
lfoot -13.9521 48.2151
ltoes 1.37782
228
root 0.476739 17.5067 9.0193 8.87562 2.84299 -10.3979
lowerback 2.01882 1.48663 5.92212
upperback -7.83841 2.56765 1.77377
thorax -9.27039 0.901897 -1.67611
lowerneck -15.9928 -4.19978 -2.42398
upperneck 24.9621 -7.37699 7.46009
head 11.1166 -2.68232 2.055
rclavicle -5.2181e-015 1.82882e-014
rhumerus 2.90893 54.2621 -72.2658
rradius 93.4685
rwrist 33.0708
rhand -18.7769 -47.1674
rfingers 7.12502
rthumb 7.52046 -77.0137
lclavicle -5.2181e-015 1.82882e-014
lhumerus -3.56496 -31.136 85.7034
lradius 71.9338
lwrist 0.085714
lhand -29.4311 -2.13899
lfingers 7.12502
lthumb -2.76804 27.8228
rfemur -4.5508 24.3327 27.7109
rtibia 2.15786
rfoot -12.0197 -27.3621
rtoes 5.5933
lfemur 1.45037 -43.0821 -6.72507
ltibia -4.07103
lfoot -13.986 48.0718
ltoes 1.44438
229
root 0.485325 17.5076 9.02253 8.91244 2.53959 -10.4422
lowerback 1.97647 1.6573 5.96533
upperback -7.88761 2.79265 1.68451
thorax -9.27778 1.00407 -1.81473
lowerneck -16.0735 -4.2492 -2.42477
upperneck 25.2658 -7.47672 7.46787
head 11.2538 -2.71574 2.0453
rclavicle 1.44119e-015 4.21423e-014
rhumerus 4.21152 53.1998 -71.6634
rradius 93.4867
rwrist 33.777
rhand -20.1488 -47.8064
rfingers 7.12502
rthumb 6.19617 -77.6958
lclavicle 1.44119e-015 4.21423e-014
lhumerus -4.09728 -31.7011 86.0099
lradius 72.2255
lwrist 1.83423
lhand -29.2728 -1.86854
lfingers 7.12502
lthumb -2.61517 28.0952
rfemur -4.65169 24.3304 27.7032
rtibia 2.26538
rfoot -11.9607 -27.0903
rtoes 5.49417
lfemur 1.53533 -42.8454 -6.76046
ltibia -4.081
lfoot -14.193 48.0901
ltoes 1.82945
230
root 0.497331 17.5093 9.02614 8.98202 2.14219 -10.4273
lowerback 1.89523 1.87301 5.98726
upperback -7.95243 3.07288 1.57532
thorax -9.27373 1.13417 -1.96605
lowerneck -15.9417 -4.30006 -2.43509
upperneck 25.3454 -7.57289 7.53463
head 11.2674 -2.7531 2.06025
rclavicle -1.15792e-014 5.56597e-015
rhumerus 5.61874 51.8119 -71.101
rradius 92.889
rwrist 34.8569
rhand -21.2417 -48.192
rfingers 7.12502
rthumb 5.14098 -78.1097
lclavicle -1.15792e-014 5.56597e-015
lhumerus -4.69361 -32.2023 86.4755
lradius 72.5219
lwrist 2.75398
lhand -29.2637 -1.74972
lfingers 7.12502
lthumb -2.60636 28.2141
rfemur -4.75195 24.3796 27.599
rtibia 2.30245
rfoot -11.7693 -26.7982
rtoes 5.06231
lfemur 1.71485 -42.8533 -6.96558
ltibia -4.11608
lfoot -14.5684 48.4087
ltoes 2.42985
231
root 0.509753 17.5105 9.0285 9.10449 1.65866 -10.3892
lowerback 1.79552 2.11184 5.9552
upperback -8.0328 3.38079 1.47726
thorax -9.27549 1.28206 -2.07683
lowerneck -15.8122 -4.37718 -2.60688
upperneck 25.3585 -7.69616 7.74208
head 11.2715 -2.80307 2.14918
rclavicle 1.88845e-015 0
rhumerus 7.20688 50.3709 -70.4724
rradius 91.845
rwrist 36.0475
rhand -21.8907 -48.7236
rfingers 7.12502
rthumb 4.51432 -78.6555
lclavicle 1.88845e-015 0
lhumerus -5.35912 -32.6234 87.0455
lradius 72.8801
lwrist 2.68411
lhand -29.4746 -1.57302
lfingers 7.12502
lthumb -2.8101 28.3882
rfemur -4.91267 24.5405 27.4308
rtibia 2.32745
rfoot -11.5373 -26.5187
rtoes 4.57915
lfemur 1.82898 -42.777 -7.16598
ltibia -4.12176
lfoot -15.0936 48.7129
ltoes 3.24572
232
root 0.521358 17.5104 9.02781 9.24415 1.12212 -10.2844
lowerback 1.71694 2.38246 5.87725
upperback -8.08785 3.72324 1.31002
thorax -9.25533 1.44837 -2.23814
lowerneck -15.7546 -4.48067 -2.71768
upperneck 25.262 -7.87269 7.97873
head 11.2518 -2.869 2.22786
rclavicle -1.15295e-014 -7.23576e-014
rhumerus 8.89025 48.8579 -69.8526
rradius 90.4364
rwrist 36.8778
rhand -22.2347 -49.2725
rfingers 7.12502
rthumb 4.18218 -79.2112
lclavicle -1.15295e-014 -7.23576e-014
lhumerus -5.97345 -33.1464 87.5491
lradius 73.3117
lwrist 2.32069
lhand -29.8594 -1.41762
lfingers 7.12502
lthumb -3.18169 28.5384
rfemur -5.13244 24.6122 27.1557
rtibia 2.37552
rfoot -11.3053 -26.1017
rtoes 4.15426
lfemur 1.90594 -42.6677 -7.43396
ltibia -4.08795
lfoot -15.6203 49.0239
ltoes 3.9623
233
root 0.534323 17.5095 9.02891 9.34583 0.638414 -10.1373
lowerback 1.63898 2.62138 5.83023
upperback -8.0995 4.01943 1.10186
thorax -9.18505 1.59024 -2.45371
lowerneck -15.8146 -4.59013 -2.79941
upperneck 25.1901 -8.07137 8.22695
head 11.2668 -2.93684 2.30066
rclavicle -1.32192e-014 2.62396e-014
rhumerus 10.4783 47.2478 -69.4416
rradius 88.6345
rwrist 37.4725
rhand -21.9217 -49.5975
rfingers 7.12502
rthumb 4.4844 -79.53
lclavicle -1.32192e-014 2.62396e-014
lhumerus -6.52543 -33.6943 87.961
lradius 73.7983
lwrist 2.38659
lhand -30.1172 -1.34047
lfingers 7.12502
lthumb -3.43061 28.6117
rfemur -5.29078 24.5823 26.8505
rtibia 2.39993
rfoot -11.0468 -25.6509
rtoes 3.46749
lfemur 2.09388 -42.7595 -7.84445
ltibia -4.07712
lfoot -16.17 49.4477
ltoes 4.6631
234
root 0.549138 17.5084 9.03356 9.42267 0.237672 -10.0309
lowerback 1.54846 2.79548 5.82399
upperback -8.07724 4.23354 0.960561
thorax -9.07794 1.69377 -2.61128
lowerneck -16.0159 -4.68415 -2.88005
upperneck 25.2243 -8.22898 8.37271
head 11.3425 -2.99118 2.34067
rclavicle 2.28602e-014 -1.19271e-014
rhumerus 12.0337 45.6804 -69.1158
rradius 86.3928
rwrist 38.0264
rhand -20.5994 -49.7007
rfingers 7.12502
rthumb 5.76112 -79.6024
lclavicle 2.28602e-014 -1.19271e-014
lhumerus -7.0689 -34.1256 88.3633
lradius 74.3749
lwrist 3.03902
lhand -30.0137 -1.38984
lfingers 7.12502
lthumb -3.33065 28.5639
rfemur -5.38001 24.5761 26.6167
rtibia 2.41613
rfoot -10.9129 -25.271
rtoes 2.98066
lfemur 2.37786 -43.1044 -8.29
ltibia -4.08851
lfoot -16.9204 49.9924
ltoes 5.70852
235
root 0.563517 17.508 9.03479 9.51058 -0.106197 -9.96716
lowerback 1.52056 2.94204 5.71639
upperback -8.10878 4.42088 0.928383
thorax -9.08436 1.79178 -2.60021
lowerneck -16.0329 -4.78136 -3.06291
upperneck 25.1852 -8.35565 8.51869
head 11.3558 -3.04895 2.40495
rclavicle 1.63003e-014 -3.18055e-015
rhumerus 13.429 44.3115 -68.8182
rradius 83.8222
rwrist 38.2356
rhand -18.363 -49.6751
rfingers 7.12502
rthumb 7.91999 -79.5067
lclavicle 1.63003e-014 -3.18055e-015
lhumerus -7.73782 -34.5519 88.9013
lradius 75.0051
lwrist 3.79312
lhand -29.7754 -1.36209
lfingers 7.12502
lthumb -3.10059 28.5951
rfemur -5.52321 24.5706 26.4173
rtibia 2.47336
rfoot -10.8484 -24.9336
rtoes 2.81643
lfemur 2.595 -43.5338 -8.637
ltibia -4.09934
lfoot -17.5526 50.6206
ltoes 6.38343
236
root 0.575302 17.5078 9.03255 9.57973 -0.382453 -9.94407
lowerback 1.57851 3.06347 5.47114
upperback -8.19905 4.58472 1.01109
thorax -9.22835 1.88807 -2.39773
lowerneck -15.8663 -4.90237 -3.31996
upperneck 25.1153 -8.47571 8.6013
head 11.3202 -3.12515 2.46233
rclavicle 6.36111e-015 -3.97569e-015
rhumerus 14.4806 43.1694 -68.6468
rradius 81.1494
rwrist 37.8351
rhand -14.7374 -49.3171
rfingers 7.12502
rthumb 11.418 -78.9862
lclavicle 6.36111e-015 -3.97569e-015
lhumerus -8.58938 -34.9963 89.6507
lradius 75.6284
lwrist 4.31122
lhand -29.9704 -1.39804
lfingers 7.12502
lthumb -3.28884 28.5563
rfemur -5.67442 24.5142 26.276
rtibia 2.53577
rfoot -10.7282 -24.6257
rtoes 2.54674
lfemur 2.75726 -43.8541 -8.85932
ltibia -4.14234
lfoot -18.0048 51.1363
ltoes 6.6887
237
root 0.584072 17.507 9.02971 9.6167 -0.565243 -10.0026
lowerback 1.60843 3.15067 5.55419
upperback -8.20331 4.70576 0.958286
thorax -9.2315 1.93857 -2.51119
lowerneck -15.786 -5.01073 -3.41137
upperneck 24.9695 -8.62392 8.711
head 11.2704 -3.19474 2.49464
rclavicle -1.8487e-014 1.59028e-015
rhumerus 15.3346 41.8604 -68.9065
rradius 78.407
rwrist 36.6738
rhand -9.42844 -48.1002
rfingers 7.12502
rthumb 16.534 -77.4158
lclavicle -1.8487e-014 1.59028e-015
lhumerus -9.18971 -35.6147 90.0283
lradius 76.1631
lwrist 4.57557
lhand -30.5921 -1.48663
lfingers 7.12502
lthumb -3.88925 28.4576
rfemur -5.77311 24.4425 26.2663
rtibia 2.58104
rfoot -10.6523 -24.3718
rtoes 2.42795
lfemur 2.89443 -44.0739 -8.93619
ltibia -4.18939
lfoot -18.4288 51.4745
ltoes 7.14798
238
root 0.590612 17.5073 9.02523 9.63824 -0.667971 -10.146
lowerback 1.56786 3.22496 6.27357
upperback -8.08875 4.81101 0.564364
thorax -8.98911 1.9297 -3.32443
lowerneck -15.7807 -5.08993 -3.36351
upperneck 24.6615 -8.85424 9.18295
head 11.1966 -3.24763 2.6199
rclavicle -2.40529e-014 -1.35174e-014
rhumerus 16.1624 40.3181 -69.6745
rradius 75.6646
rwrist 34.813
rhand -3.73341 -46.8286
rfingers 7.12502
rthumb 22.0099 -75.5963
lclavicle -2.40529e-014 -1.35174e-014
lhumerus -9.35385 -36.5725 89.6582
lradius 76.5877
lwrist 4.57854
lhand -31.2564 -1.38117
lfingers 7.12502
lthumb -4.53072 28.5504
rfemur -5.85107 24.4631 26.3769
rtibia 2.63369
rfoot -10.6492 -24.2693
rtoes 2.7148
lfemur 2.96395 -44.2227 -8.84656
ltibia -4.21704
lfoot -18.7474 51.7127
ltoes 7.51129
239
root 0.595837 17.5089 9.02027 9.63999 -0.720196 -10.2462
lowerback 1.62965 3.24153 6.34146
upperback -8.03091 4.84057 0.576981
thorax -8.95513 1.94199 -3.35276
lowerneck -15.8412 -5.12858 -3.29691
upperneck 24.589 -8.91237 9.15554
head 11.1813 -3.2715 2.58734
rclavicle -2.16675e-014 1.35174e-014
rhumerus 17.0119 39.608 -69.6566
rradius 73.0707
rwrist 33.0288
rhand 0.865934 -46.6025
rfingers 7.12502
rthumb 26.4195 -74.7814
lclavicle -2.16675e-014 1.35174e-014
lhumerus -9.76248 -37.0412 89.9607
lradius 76.9102
lwrist 4.22662
lhand -31.8479 -1.27783
lfingers 7.12502
lthumb -5.10187 28.6408
rfemur -5.897 24.5501 26.4563
rtibia 2.67246
rfoot -10.6252 -24.2909
rtoes 2.85008
lfemur 2.98571 -44.3094 -8.7663
ltibia -4.21994
lfoot -19.0033 51.8446
ltoes 7.73024
